<?xml version="1.0" encoding="iso-8859-1"?>
<!-- Uploaded to: SVG Repo, www.svgrepo.com, Generator: SVG Repo Mixer Tools -->
<svg height="800px" width="800px" version="1.1" id="Layer_1" xmlns="http://www.w3.org/2000/svg" xmlns:xlink="http://www.w3.org/1999/xlink" 
	 viewBox="0 0 512 512" xml:space="preserve">
<path style="fill:#F7B239;" d="M324.642,228.784c24.095,39.111,22.958,86.531-5.816,115.293
	c-8.308,8.321-18.181,14.32-28.958,18.071c-27.919,9.75-47.811,34.639-51.061,64.037c-2.444,21.944-11.388,42.263-27.137,58.013
	C169.31,526.558,93.8,519.753,43.02,468.973c-50.767-50.767-57.573-126.289-15.212-168.638
	c15.749-15.762,36.069-24.693,58.013-27.137c29.397-3.238,54.298-23.129,64.037-51.061c3.751-10.777,9.762-20.637,18.071-28.945
	c28.774-28.774,76.182-29.911,115.28-5.84L324.642,228.784z"/>
<g>
	<path style="fill:#4D4D4D;" d="M265.749,290.352c0.305,11.974-4.105,24.034-13.245,33.173c-17.68,17.692-46.344,17.692-64.024,0
		c-17.68-17.68-17.68-46.344,0-64.024c9.127-9.127,21.199-13.55,33.161-13.245c11.192,0.281,22.311,4.704,30.864,13.245
		C261.057,268.042,265.468,279.16,265.749,290.352z"/>
	<path style="fill:#4D4D4D;" d="M71.208,381.741c-3.579-3.579-9.381-3.579-12.959,0c-3.579,3.579-3.579,9.38,0,12.959l59.054,59.053
		c1.789,1.79,4.135,2.684,6.479,2.684s4.691-0.894,6.479-2.684c3.579-3.579,3.579-9.381,0-12.959L71.208,381.741z"/>
</g>
<path style="fill:#F7B239;" d="M511.29,47.732c1.552,4.264,0.501,9.042-2.712,12.243l-4.13,4.13l-20.038,20.05l-20.05,20.038
	l-4.777,4.79c-5.816,5.804-15.224,5.804-21.04,0l-35.519-35.519c-5.804-5.816-5.804-15.236,0-21.04l4.79-4.777l20.038-20.05
	l20.05-20.05l4.13-4.13c3.201-3.201,7.979-4.264,12.243-2.712l29.361,10.703c3.238,1.173,5.779,3.727,6.964,6.964L511.29,47.732z"/>
<path style="fill:#C49270;" d="M283.209,187.352L402.668,73.11l0.354,0.354l35.519,35.519l0.342,0.342L324.642,228.784
	l-58.88,61.568h-0.012c-0.281-11.192-4.692-22.311-13.245-30.851c-8.553-8.541-19.672-12.964-30.864-13.245v-0.024L283.209,187.352z
	"/>
</svg>